<svg xmlns="http://www.w3.org/2000/svg" version="1.1" xmlns:xlink="http://www.w3.org/1999/xlink" width="1000" height="1000"><metadata><rdf:RDF xmlns:rdf="http://www.w3.org/1999/02/22-rdf-syntax-ns#" xmlns:dc="http://purl.org/dc/elements/1.1/"><rdf:Description><dc:creator>RealFaviconGenerator</dc:creator><dc:source>https://realfavicongenerator.net</dc:source></rdf:Description></rdf:RDF></metadata><g clip-path="url(#SvgjsClipPath1052)"><rect width="1000" height="1000" fill="#134eee"></rect><g transform="matrix(1.7578125,0,0,1.7578125,50,50)"><svg xmlns="http://www.w3.org/2000/svg" width="512" height="512" viewBox="0 0 512 512" fill="none"><rect width="512" height="512" fill="#1E1E1E"></rect><rect width="512" height="512" fill="#134EEE"></rect><g filter="url(#filter0_d_0_1)">
<mask id="path-1-outside-1_0_1" maskUnits="userSpaceOnUse" x="24" y="152" width="454" height="209" fill="black">
<rect fill="white" x="24" y="152" width="454" height="209"></rect>
<path d="M29.3519 356V157.898H128.148C178.31 157.898 196.898 171.139 196.898 208.824C196.898 234.796 187.986 246.764 167.106 252.366V253.384C191.806 258.731 201.991 271.972 201.991 301.255C201.991 341.741 182.639 356 128.912 356H29.3519ZM65 325.444H128.912C156.921 325.444 166.343 319.843 166.343 297.181C166.343 275.282 157.176 268.917 130.694 268.917H65V325.444ZM65 238.87H130.185C153.356 238.87 162.014 233.523 162.014 213.407C162.014 193.292 153.611 188.454 128.148 188.454H65V238.87ZM234.259 356V157.898H328.472C385.509 157.898 404.861 173.685 404.861 214.935C404.861 242.944 395.949 256.949 374.051 263.569V264.843C396.967 267.898 404.861 280.63 404.861 309.657V356H369.467V318.06C369.467 287.505 362.338 281.903 328.472 281.903H269.907V356H234.259ZM269.907 250.838H328.472C359.791 250.838 369.213 243.199 369.213 218.755C369.213 195.583 359.791 189.218 325.162 189.218H269.907V250.838ZM438.231 356V316.278H472.606V356H438.231Z"></path>
</mask>
<path d="M29.3519 356V157.898H128.148C178.31 157.898 196.898 171.139 196.898 208.824C196.898 234.796 187.986 246.764 167.106 252.366V253.384C191.806 258.731 201.991 271.972 201.991 301.255C201.991 341.741 182.639 356 128.912 356H29.3519ZM65 325.444H128.912C156.921 325.444 166.343 319.843 166.343 297.181C166.343 275.282 157.176 268.917 130.694 268.917H65V325.444ZM65 238.87H130.185C153.356 238.87 162.014 233.523 162.014 213.407C162.014 193.292 153.611 188.454 128.148 188.454H65V238.87ZM234.259 356V157.898H328.472C385.509 157.898 404.861 173.685 404.861 214.935C404.861 242.944 395.949 256.949 374.051 263.569V264.843C396.967 267.898 404.861 280.63 404.861 309.657V356H369.467V318.06C369.467 287.505 362.338 281.903 328.472 281.903H269.907V356H234.259ZM269.907 250.838H328.472C359.791 250.838 369.213 243.199 369.213 218.755C369.213 195.583 359.791 189.218 325.162 189.218H269.907V250.838ZM438.231 356V316.278H472.606V356H438.231Z" fill="white"></path>
<path d="M29.3519 356H24.3519V361H29.3519V356ZM29.3519 157.898V152.898H24.3519V157.898H29.3519ZM167.106 252.366L165.811 247.537L162.106 248.53V252.366H167.106ZM167.106 253.384H162.106V257.418L166.049 258.271L167.106 253.384ZM65 325.444H60V330.444H65V325.444ZM65 268.917V263.917H60V268.917H65ZM65 238.87H60V243.87H65V238.87ZM65 188.454V183.454H60V188.454H65ZM29.3519 356H34.3519V157.898H29.3519H24.3519V356H29.3519ZM29.3519 157.898V162.898H128.148V157.898V152.898H29.3519V157.898ZM128.148 157.898V162.898C153.079 162.898 168.837 166.252 178.374 173.259C187.467 179.939 191.898 190.753 191.898 208.824H196.898H201.898C201.898 189.21 197.035 174.561 184.294 165.2C171.996 156.164 153.379 152.898 128.148 152.898V157.898ZM196.898 208.824H191.898C191.898 221.33 189.736 229.63 185.731 235.374C181.795 241.019 175.569 244.919 165.811 247.537L167.106 252.366L168.402 257.195C179.524 254.211 188.194 249.326 193.934 241.094C199.605 232.96 201.898 222.291 201.898 208.824H196.898ZM167.106 252.366H162.106V253.384H167.106H172.106V252.366H167.106ZM167.106 253.384L166.049 258.271C177.731 260.8 185.139 265.01 189.787 271.311C194.506 277.711 196.991 287.085 196.991 301.255H201.991H206.991C206.991 286.141 204.383 274.255 197.835 265.376C191.215 256.4 181.181 251.315 168.164 248.497L167.106 253.384ZM201.991 301.255H196.991C196.991 320.773 192.342 332.536 182.608 339.803C172.446 347.389 155.629 351 128.912 351V356V361C155.922 361 175.644 357.481 188.59 347.816C201.963 337.832 206.991 322.222 206.991 301.255H201.991ZM128.912 356V351H29.3519V356V361H128.912V356ZM65 325.444V330.444H128.912V325.444V320.444H65V325.444ZM128.912 325.444V330.444C142.852 330.444 153.754 329.144 161.06 323.863C168.906 318.192 171.343 309.017 171.343 297.181H166.343H161.343C161.343 308.006 159.069 312.963 155.202 315.759C150.794 318.944 142.981 320.444 128.912 320.444V325.444ZM166.343 297.181H171.343C171.343 285.709 168.964 276.643 161.506 270.88C154.455 265.432 143.984 263.917 130.694 263.917V268.917V273.917C143.886 273.917 151.24 275.585 155.392 278.793C159.138 281.688 161.343 286.754 161.343 297.181H166.343ZM130.694 268.917V263.917H65V268.917V273.917H130.694V268.917ZM65 268.917H60V325.444H65H70V268.917H65ZM65 238.87V243.87H130.185V238.87V233.87H65V238.87ZM130.185 238.87V243.87C141.801 243.87 151.308 242.614 157.817 237.661C164.749 232.386 167.014 224.016 167.014 213.407H162.014H157.014C157.014 222.914 154.95 227.276 151.761 229.703C148.148 232.453 141.741 233.87 130.185 233.87V238.87ZM162.014 213.407H167.014C167.014 202.836 164.827 194.457 157.51 189.3C150.785 184.56 140.789 183.454 128.148 183.454V188.454V193.454C140.97 193.454 147.907 194.766 151.749 197.474C155 199.765 157.014 203.863 157.014 213.407H162.014ZM128.148 188.454V183.454H65V188.454V193.454H128.148V188.454ZM65 188.454H60V238.87H65H70V188.454H65ZM234.259 356H229.259V361H234.259V356ZM234.259 157.898V152.898H229.259V157.898H234.259ZM374.051 263.569L372.604 258.783L369.051 259.858V263.569H374.051ZM374.051 264.843H369.051V269.22L373.39 269.799L374.051 264.843ZM404.861 356V361H409.861V356H404.861ZM369.467 356H364.467V361H369.467V356ZM269.907 281.903V276.903H264.907V281.903H269.907ZM269.907 356V361H274.907V356H269.907ZM269.907 250.838H264.907V255.838H269.907V250.838ZM269.907 189.218V184.218H264.907V189.218H269.907ZM234.259 356H239.259V157.898H234.259H229.259V356H234.259ZM234.259 157.898V162.898H328.472V157.898V152.898H234.259V157.898ZM328.472 157.898V162.898C356.818 162.898 374.454 166.884 385.028 174.928C395.2 182.665 399.861 195.014 399.861 214.935H404.861H409.861C409.861 193.606 404.846 177.437 391.082 166.968C377.721 156.805 357.163 152.898 328.472 152.898V157.898ZM404.861 214.935H399.861C399.861 228.502 397.685 237.91 393.445 244.595C389.297 251.137 382.761 255.713 372.604 258.783L374.051 263.569L375.498 268.355C387.239 264.806 396.108 259.069 401.89 249.951C407.581 240.977 409.861 229.377 409.861 214.935H404.861ZM374.051 263.569H369.051V264.843H374.051H379.051V263.569H374.051ZM374.051 264.843L373.39 269.799C384 271.213 390.135 274.702 393.901 280.301C397.879 286.216 399.861 295.395 399.861 309.657H404.861H409.861C409.861 294.892 407.896 283.192 402.198 274.72C396.288 265.933 387.018 261.527 374.712 259.886L374.051 264.843ZM404.861 309.657H399.861V356H404.861H409.861V309.657H404.861ZM404.861 356V351H369.467V356V361H404.861V356ZM369.467 356H374.467V318.06H369.467H364.467V356H369.467ZM369.467 318.06H374.467C374.467 302.952 372.866 291.619 364.946 284.747C361.016 281.336 355.986 279.43 350.072 278.339C344.18 277.251 337.014 276.903 328.472 276.903V281.903V286.903C336.862 286.903 343.288 287.255 348.257 288.172C353.205 289.086 356.308 290.491 358.392 292.3C362.504 295.867 364.467 302.613 364.467 318.06H369.467ZM328.472 281.903V276.903H269.907V281.903V286.903H328.472V281.903ZM269.907 281.903H264.907V356H269.907H274.907V281.903H269.907ZM269.907 356V351H234.259V356V361H269.907V356ZM269.907 250.838V255.838H328.472V250.838V245.838H269.907V250.838ZM328.472 250.838V255.838C344.171 255.838 355.954 254.01 363.691 247.883C371.816 241.449 374.213 231.403 374.213 218.755H369.213H364.213C364.213 230.551 361.899 236.546 357.483 240.043C352.68 243.847 344.092 245.838 328.472 245.838V250.838ZM369.213 218.755H374.213C374.213 206.657 371.769 197.06 362.961 191.146C354.861 185.707 342.368 184.218 325.162 184.218V189.218V194.218C342.585 194.218 352.118 195.911 357.386 199.448C361.946 202.51 364.213 207.681 364.213 218.755H369.213ZM325.162 189.218V184.218H269.907V189.218V194.218H325.162V189.218ZM269.907 189.218H264.907V250.838H269.907H274.907V189.218H269.907ZM438.231 356H433.231V361H438.231V356ZM438.231 316.278V311.278H433.231V316.278H438.231ZM472.606 316.278H477.606V311.278H472.606V316.278ZM472.606 356V361H477.606V356H472.606ZM438.231 356H443.231V316.278H438.231H433.231V356H438.231ZM438.231 316.278V321.278H472.606V316.278V311.278H438.231V316.278ZM472.606 316.278H467.606V356H472.606H477.606V316.278H472.606ZM472.606 356V351H438.231V356V361H472.606V356Z" fill="white" mask="url(#path-1-outside-1_0_1)"></path>
</g><defs>
<filter id="filter0_d_0_1" x="20.3519" y="152.898" width="461.254" height="216.102" filterUnits="userSpaceOnUse" color-interpolation-filters="sRGB">
<feFlood flood-opacity="0" result="BackgroundImageFix"></feFlood>
<feColorMatrix in="SourceAlpha" type="matrix" values="0 0 0 0 0 0 0 0 0 0 0 0 0 0 0 0 0 0 127 0" result="hardAlpha"></feColorMatrix>
<feOffset dy="4"></feOffset>
<feGaussianBlur stdDeviation="2"></feGaussianBlur>
<feComposite in2="hardAlpha" operator="out"></feComposite>
<feColorMatrix type="matrix" values="0 0 0 0 0 0 0 0 0 0 0 0 0 0 0 0 0 0 0.25 0"></feColorMatrix>
<feBlend mode="normal" in2="BackgroundImageFix" result="effect1_dropShadow_0_1"></feBlend>
<feBlend mode="normal" in="SourceGraphic" in2="effect1_dropShadow_0_1" result="shape"></feBlend>
</filter>
<clipPath id="SvgjsClipPath1052"><rect width="1000" height="1000" x="0" y="0" rx="500" ry="500"></rect></clipPath></defs></svg></g></g></svg>